<svg width="44" height="48" viewBox="0 0 44 48" fill="none" xmlns="http://www.w3.org/2000/svg">
<path d="M4.35355 8.64645C4.15829 8.45118 3.84171 8.45118 3.64645 8.64645L0.464466 11.8284C0.269204 12.0237 0.269204 12.3403 0.464466 12.5355C0.659728 12.7308 0.976311 12.7308 1.17157 12.5355L4 9.70711L6.82843 12.5355C7.02369 12.7308 7.34027 12.7308 7.53553 12.5355C7.7308 12.3403 7.7308 12.0237 7.53553 11.8284L4.35355 8.64645ZM4.5 44L4.5 9H3.5L3.5 44H4.5Z" fill="#02E602"/>
<path d="M40.3536 44.3536C40.5488 44.1583 40.5488 43.8417 40.3536 43.6464L37.1716 40.4645C36.9763 40.2692 36.6597 40.2692 36.4645 40.4645C36.2692 40.6597 36.2692 40.9763 36.4645 41.1716L39.2929 44L36.4645 46.8284C36.2692 47.0237 36.2692 47.3403 36.4645 47.5355C36.6597 47.7308 36.9763 47.7308 37.1716 47.5355L40.3536 44.3536ZM4 44.5H40V43.5H4V44.5Z" fill="#02E602"/>
<path d="M30.6832 18.6894C30.6845 18.4168 30.4589 18.1947 30.1793 18.1933L25.6227 18.1715C25.3431 18.1701 25.1154 18.3901 25.1141 18.6627C25.1128 18.9353 25.3384 19.1574 25.618 19.1587L29.6682 19.1782L29.6493 23.1272C29.648 23.3998 29.8736 23.6219 30.1532 23.6232C30.4328 23.6246 30.6606 23.4046 30.6619 23.132L30.6832 18.6894ZM5.35632 43.3508L30.5332 19.0377L29.8206 18.3362L4.64368 42.6492L5.35632 43.3508Z" fill="#02E602"/>
<path d="M15.354 5.524L13.17 15.38H12.302L13.002 12.44L11.238 5.524H12.19L13.38 11.012L14.458 5.524H15.354Z" fill="#02E602"/>
<path d="M38.696 14.216V15H35.364V14.3L37.73 8.308H35.448V7.524H38.668V8.224L36.302 14.216H38.696Z" fill="#02E602"/>
<path d="M42.556 38L41.38 34.948L40.12 38H39.21L40.918 34.192L39.252 30.524H40.246L41.366 33.436L42.556 30.524H43.466L41.828 34.192L43.55 38H42.556Z" fill="#02E602"/>
</svg>
