<svg width="1200" height="1229" viewBox="0 0 1200 1229" fill="none" xmlns="http://www.w3.org/2000/svg">
<g clip-path="url(#clip0_162_8)">
<path d="M462.31 442.214C416.454 451.658 382.744 497.034 401.668 527.399C420.592 557.764 459.114 576.353 490.958 571.872C522.802 567.392 491.538 516.206 496.183 488.642C500.964 460.972 483.96 437.811 462.31 442.214Z" stroke="#464646" stroke-opacity="0.7" stroke-miterlimit="10"/>
<path d="M413.241 599.815C433.969 627.737 464.827 617.702 496.034 631.211C514.361 639.086 522.424 635.493 529.576 630.177C540.912 621.591 543.006 595.054 543.143 584.933C543.826 554.086 528.409 508.753 538.544 480.265C556.322 429.838 495.332 416.051 464.662 412.135C425.46 407.037 400.946 422.13 391.913 448.133C372.16 506.329 348.57 512.309 413.241 599.815Z" stroke="#464646" stroke-opacity="0.7" stroke-miterlimit="10"/>
<path d="M349.453 512.376C332.703 534.404 366.708 571.241 397.19 640.905C420.28 693.585 477.382 664.416 527.476 688.412C579.166 713.056 578.611 685.04 581.047 643.577C583.951 597.142 559.502 516.532 580.754 468.226C612.635 395.629 506.001 388.984 466.43 377.901C409.274 361.863 385.821 385.063 373.2 418.226C360.433 452.316 361.298 496.889 349.453 512.376Z" stroke="#464646" stroke-opacity="0.7" stroke-miterlimit="10"/>
<path d="M321.164 501.734C290.14 527.057 339.606 579.531 379.542 680.672C409.103 755.749 488.055 710.064 557.104 744.527C630 781.136 629.69 739.885 624.03 676.78C618.255 612.138 591.767 514.593 620.521 455.516C666.663 360.889 514.655 360.867 465.983 342.758C390.979 314.846 365.244 344.716 352.718 387.045C339.923 429.585 341.668 484.901 321.164 501.734Z" stroke="#464646" stroke-opacity="0.7" stroke-miterlimit="10"/>
<path d="M465.25 307.735C372.713 267.94 344.23 304.85 331.482 356.064C318.865 407.447 321.85 473.24 292.11 491.589C247.026 519.757 311.97 588.709 361.219 721.221C397.508 818.803 498.303 756.338 586.237 801.358C680.552 849.264 680.781 794.531 666.648 710.579C652.384 626.458 623.761 512.843 660.107 442.921C720.773 326.314 523.087 332.572 465.25 307.735Z" stroke="#464646" stroke-opacity="0.7" stroke-miterlimit="10"/>
<path d="M355.77 767.3C408.687 860.082 510.927 830.33 602.235 869.815C693.81 909.362 708.037 864.106 715.737 786.557C720.053 742.811 696.406 680.812 680.648 618.61C663.238 549.84 662.191 486.982 709.995 439.608C803.706 346.885 536.045 291.006 466.233 273.745C368.576 249.517 334.734 292.215 315.406 349.314C296.21 406.582 291.826 475.85 253.044 497.75C195.545 530.209 277.378 629.662 355.77 767.3Z" stroke="#464646" stroke-opacity="0.7" stroke-miterlimit="10"/>
<path d="M352.379 812.677C420.44 901.184 525.691 904.017 620.343 937.615C709.271 969.185 742.288 933.095 766.972 861.525C784.125 811.822 744.567 732.471 717.473 651.508C688.968 566.23 681.896 488.588 761.714 435.167C877.859 357.699 551.227 247.172 468.803 238.425C366.206 227.559 326.43 278.14 300.795 341.242C275.159 404.345 263.167 477.105 215.184 502.403C145.897 539.469 242.405 669.685 352.379 812.677Z" stroke="#464646" stroke-opacity="0.7" stroke-miterlimit="10"/>
<path d="M349.667 850.886C432.161 935.891 541.052 971.519 639.079 999.36C725.118 1023.82 779.163 997.869 818.336 931.188C850.003 877.153 792.666 778.733 754.057 678.972C714.537 577.211 698.873 480.952 812.62 425.446C948.687 359.012 565.093 196.24 470.591 197.108C362.857 198.007 317.888 257.824 286.04 326.648C254.057 395.577 234.949 471.807 177.932 500.35C96.5753 541.129 206.721 703.803 349.667 850.886Z" stroke="#464646" stroke-opacity="0.7" stroke-miterlimit="10"/>
</g>
<defs>
<clipPath id="clip0_162_8">
<rect width="950" height="780" fill="white" transform="translate(585 1229) rotate(-128)"/>
</clipPath>
</defs>
</svg>
