<svg width="40" height="27" viewBox="0 0 40 27" fill="none" xmlns="http://www.w3.org/2000/svg">
<rect x="1" y="1" width="38" height="25" stroke="#02E602" stroke-width="2"/>
<path d="M12.1958 12.4402C12.4754 12.4389 12.701 12.2168 12.6997 11.9442L12.6784 7.50152C12.6771 7.2289 12.4493 7.00899 12.1697 7.01033C11.8901 7.01167 11.6645 7.23376 11.6658 7.50638L11.6847 11.4554L7.63449 11.4748C7.35487 11.4762 7.12926 11.6982 7.13057 11.9709C7.13188 12.2435 7.35961 12.4634 7.63922 12.4621L12.1958 12.4402ZM4.64368 5.35076L11.8371 12.2973L12.5497 11.5958L5.35632 4.64924L4.64368 5.35076Z" fill="#02E602"/>
<path d="M25.6211 15.922C25.3462 15.9721 25.163 16.2303 25.2119 16.4987L26.0083 20.8729C26.0572 21.1414 26.3196 21.3184 26.5945 21.2683C26.8694 21.2183 27.0526 20.9601 27.0037 20.6917L26.2958 16.8035L30.2777 16.0785C30.5526 16.0285 30.7358 15.7703 30.6869 15.5019C30.6381 15.2335 30.3756 15.0564 30.1007 15.1065L25.6211 15.922ZM34.2894 21.5922L25.999 16.0003L25.4202 16.8158L33.7106 22.4078L34.2894 21.5922Z" fill="#02E602"/>
</svg>
